# xmcd
#
# Track frame offsets: 
#        150
#        12504
#        25060
#        37269
#        47953
#        59578
#        70951
#        85153
#        98065
#        111894
#        122641
#        138698
#        149282
#        164258
#
# Disc length: 2330 seconds
#
# Revision: 0
# Processed by: cddbd v1.5.2PL0 Copyright (c) Steve Scherf et al.
# Submitted via: ExactAudioCopy v0.99pb5
#
DISCID=cd09180e
DTITLE=George "Wild Child" Butler - Greatest Hits
DYEAR=2012
DGENRE=Blues
TTITLE0=Open Up Baby
TTITLE1=Big Momma, Little Momma
TTITLE2=Axe and the Wind
TTITLE3=Jelly Jam
TTITLE4=Hold Me Baby
TTITLE5=Do Something Baby
TTITLE6=She Walks Like My Mary Ann
TTITLE7=Put it All in There
TTITLE8=My Forty Year Old Woman
TTITLE9=Harmonica Player
TTITLE10=Gravy Child
TTITLE11=Best of Wild Child (Instrumental)
TTITLE12=Keep On (Doin' What You're Doin')
TTITLE13=Hippy Playground
EXTD=
EXTT0=
EXTT1=
EXTT2=
EXTT3=
EXTT4=
EXTT5=
EXTT6=
EXTT7=
EXTT8=
EXTT9=
EXTT10=
EXTT11=
EXTT12=
EXTT13=
PLAYORDER=
